<svg width="60" height="60" viewBox="0 0 60 60" fill="none" xmlns="http://www.w3.org/2000/svg">
<ellipse cx="20" cy="20" rx="20" ry="20" transform="matrix(-4.37114e-08 1 1 4.37114e-08 5 10)" fill="url(#paint0_linear_24_2)" fill-opacity="0.71"/>
<path d="M45.3 30C45.3 41.2114 36.2114 50.3 25 50.3C13.7886 50.3 4.7 41.2114 4.7 30C4.7 18.7886 13.7886 9.7 25 9.7C36.2114 9.7 45.3 18.7886 45.3 30Z" stroke="url(#paint1_linear_24_2)" stroke-opacity="0.71" stroke-width="0.6"/>
<path d="M47.6777 12.3223C44.1814 8.82602 39.7268 6.445 34.8773 5.48037C30.0277 4.51574 25.0011 5.01082 20.4329 6.90301C15.8648 8.7952 11.9603 11.9995 9.21326 16.1107C6.46622 20.222 5 25.0555 5 30C5 34.9445 6.46622 39.778 9.21326 43.8893C11.9603 48.0005 15.8648 51.2048 20.4329 53.097C25.0011 54.9892 30.0277 55.4843 34.8773 54.5196C39.7268 53.555 44.1814 51.174 47.6777 47.6777" stroke="#222222" stroke-width="1.2"/>
<path d="M22.5 30L22.0315 30.3748L21.7316 30L22.0315 29.6252L22.5 30ZM52.5 29.4C52.8314 29.4 53.1 29.6686 53.1 30C53.1 30.3314 52.8314 30.6 52.5 30.6V29.4ZM32.0315 42.8748L22.0315 30.3748L22.9685 29.6252L32.9685 42.1252L32.0315 42.8748ZM22.0315 29.6252L32.0315 17.1252L32.9685 17.8748L22.9685 30.3748L22.0315 29.6252ZM22.5 29.4L52.5 29.4V30.6L22.5 30.6L22.5 29.4Z" fill="#222222"/>
<defs>
<linearGradient id="paint0_linear_24_2" x1="20" y1="0" x2="20" y2="40" gradientUnits="userSpaceOnUse">
<stop stop-color="#1A8EF9"/>
<stop offset="1" stop-color="#B72100" stop-opacity="0.08"/>
</linearGradient>
<linearGradient id="paint1_linear_24_2" x1="5" y1="30" x2="45" y2="30" gradientUnits="userSpaceOnUse">
<stop stop-color="#1A8EF9"/>
<stop offset="1" stop-color="#B72100" stop-opacity="0.08"/>
</linearGradient>
</defs>
</svg>
