<svg width="60" height="60" viewBox="0 0 60 60" fill="none" xmlns="http://www.w3.org/2000/svg">
<ellipse cx="20" cy="20" rx="20" ry="20" transform="matrix(4.37114e-08 -1 -1 -4.37114e-08 55 50)" fill="url(#paint0_linear_24_6)" fill-opacity="0.71"/>
<path d="M14.7 30C14.7 18.7886 23.7886 9.7 35 9.7C46.2114 9.7 55.3 18.7886 55.3 30C55.3 41.2114 46.2114 50.3 35 50.3C23.7886 50.3 14.7 41.2114 14.7 30Z" stroke="url(#paint1_linear_24_6)" stroke-opacity="0.71" stroke-width="0.6"/>
<path d="M12.3223 47.6777C15.8186 51.174 20.2732 53.555 25.1227 54.5196C29.9723 55.4843 34.9989 54.9892 39.5671 53.097C44.1352 51.2048 48.0397 48.0005 50.7867 43.8893C53.5338 39.778 55 34.9445 55 30C55 25.0555 53.5338 20.222 50.7867 16.1107C48.0397 11.9995 44.1352 8.7952 39.5671 6.90301C34.9989 5.01082 29.9723 4.51574 25.1227 5.48037C20.2732 6.445 15.8186 8.82602 12.3223 12.3223" stroke="#222222" stroke-width="1.2"/>
<path d="M37.5 30L37.9685 29.6252L38.2684 30L37.9685 30.3748L37.5 30ZM7.5 30.6C7.16863 30.6 6.9 30.3314 6.9 30C6.9 29.6686 7.16863 29.4 7.5 29.4V30.6ZM27.9685 17.1252L37.9685 29.6252L37.0315 30.3748L27.0315 17.8748L27.9685 17.1252ZM37.9685 30.3748L27.9685 42.8748L27.0315 42.1252L37.0315 29.6252L37.9685 30.3748ZM37.5 30.6H7.5V29.4H37.5V30.6Z" fill="#222222"/>
<defs>
<linearGradient id="paint0_linear_24_6" x1="20" y1="0" x2="20" y2="40" gradientUnits="userSpaceOnUse">
<stop stop-color="#1A8EF9"/>
<stop offset="1" stop-color="#B72100" stop-opacity="0.08"/>
</linearGradient>
<linearGradient id="paint1_linear_24_6" x1="55" y1="30" x2="15" y2="30" gradientUnits="userSpaceOnUse">
<stop stop-color="#1A8EF9"/>
<stop offset="1" stop-color="#B72100" stop-opacity="0.08"/>
</linearGradient>
</defs>
</svg>
